<svg width="24" height="14" viewBox="0 0 24 14" fill="none" xmlns="http://www.w3.org/2000/svg">
<path d="M0 13.716H24V3.039H10.717V0H0V13.716ZM2.021 2.129H8.678V4.123C6.938 6.213 5.838 8.625 5.73 11.527H3.477C3.567 9.026 3.83 6.573 5.76 4.533L5.793 4.5H2.021V2.129ZM10.471 3.382H23.686V13.525H10.47L10.471 3.382ZM16.481 4.595V11.466H17.963V4.596L16.481 4.595ZM19.236 4.638V11.55H20.852V9.13H21.881C22.311 9.129 22.635 8.84 22.85 8.414C23.277 7.566 23.279 6.157 22.826 5.322C22.599 4.903 22.255 4.625 21.793 4.638H19.236ZM11.312 4.64V6.236H13.529L11.225 9.972V11.512H15.512V9.958H12.814L15.6 6.049V4.639L11.312 4.64ZM20.764 6.152H21.359C21.523 6.146 21.646 6.233 21.73 6.369C21.9 6.642 21.902 7.105 21.734 7.359C21.6969 7.42262 21.6414 7.4735 21.5748 7.50493C21.5082 7.53635 21.4337 7.54683 21.361 7.535L20.811 7.582L20.764 6.152Z" fill="black"/>
</svg>
