<svg width="24" height="12" viewBox="0 0 24 12" fill="none" xmlns="http://www.w3.org/2000/svg">
<path d="M0 0.891V10.977H3.674V10.467H0.53V1.401H5.056V0.891H0ZM18.944 0.891V1.402H23.47V10.466H20.326V10.977H24V0.891H18.944ZM11.217 0V1.453H12.754V1.07H11.71V0.876H12.57V0.54H11.71V0.383H12.754V0H11.71H11.217ZM12.982 0V1.453H14.372V1.026H13.475V0H12.982ZM14.533 0V1.453H15.026V0H14.533ZM15.181 0V0.427H15.738V1.453H16.231V0.427H16.789V0H15.738H15.181ZM16.946 0V1.453H18.483V1.07H17.44V0.876H18.3V0.54H17.44V0.383H18.484V0H17.44H16.946ZM11.45 2.191L7.665 2.197L7.68 5.663L9.25 9.673H14.394L13.687 7.903H9.84V3.966H12.16L11.45 2.191ZM10.162 5.053V6.823H13.269L12.557 5.053H10.162ZM6.265 0L5.517 1.453H6.055L6.177 1.175H6.876L7.011 1.453H7.547L6.794 0H6.265ZM7.628 0V1.453H9.018V1.026H8.121V0H7.628ZM9.178 0V1.453H10.568V1.026H9.672V0H9.178ZM6.528 0.444L6.715 0.835H6.338L6.528 0.444ZM22.818 2.174L20.67 2.177L19.302 5.647L18.364 2.18L16.222 2.183L15.302 5.626L13.947 2.186L11.77 2.19L14.736 9.673H16.369L17.307 6.211L18.241 9.673H19.894L22.818 2.174ZM5.974 2.199L4.129 2.202L1.183 9.674H3.37L3.712 8.774H6.045L5.359 7.027H4.404L5.039 5.354L6.745 9.674H8.915L5.974 2.199ZM19.065 10.394C18.667 10.396 18.402 10.534 18.26 10.71C18.1625 10.8419 18.1103 11.0018 18.1112 11.1658C18.1121 11.3298 18.1661 11.4892 18.265 11.62C18.868 12.245 19.839 11.754 19.897 11.628V11.006H19.005V11.35H19.41V11.436C19.296 11.588 18.812 11.579 18.688 11.383C18.564 11.158 18.65 11.009 18.696 10.939C18.973 10.639 19.449 10.877 19.48 10.943L19.845 10.65C19.6184 10.4847 19.3455 10.3951 19.065 10.394ZM11.188 10.404C11.098 10.4051 11.0082 10.4118 10.919 10.424C10.626 10.484 10.443 10.631 10.402 10.77C10.274 11.261 10.973 11.337 10.973 11.337C11.596 11.367 11.544 11.435 11.545 11.46C11.48 11.596 11.125 11.547 11.016 11.53C10.795 11.488 10.586 11.344 10.586 11.344L10.315 11.644C11.075 12.126 11.695 11.87 11.795 11.814C12.095 11.643 12.085 11.33 11.987 11.193C11.911 11.1 11.68 10.986 11.452 10.961C11.248 10.913 10.848 10.95 10.894 10.82C10.954 10.7 11.576 10.78 11.739 10.915L11.979 10.62C11.746 10.452 11.462 10.4 11.188 10.404ZM4.103 10.451L4.607 11.848H5.112L5.39 10.994L5.656 11.848H6.162L6.664 10.451H6.167L5.909 11.317L5.612 10.451H5.168L4.874 11.325L4.609 10.451H4.103ZM6.796 10.451V11.848H7.298V11.456H7.608L7.932 11.848H8.523L8.139 11.4C8.739 11.166 8.473 10.473 7.905 10.45H7.845L6.796 10.451ZM8.686 10.451V11.848H10.223V11.52H9.18V11.325H10.04V10.99H9.18V10.832H10.224V10.451H8.686ZM12.113 10.451V10.864H12.67V11.848H13.164V10.864H13.721V10.451H12.113ZM13.871 10.451V11.848H15.261V11.466H14.364V10.45L13.871 10.451ZM15.433 10.451V11.848H15.926V10.451H15.433ZM16.199 10.451V11.848H16.692V11.044L17.464 11.848H17.93V10.452H17.437V11.213L16.721 10.452L16.199 10.451ZM7.295 10.823H7.826C8.016 10.82 8.015 11.109 7.826 11.115H7.296L7.295 10.823Z" fill="black"/>
</svg>
