<svg width="24" height="19" viewBox="0 0 24 19" fill="none" xmlns="http://www.w3.org/2000/svg">
<path d="M22.354 9.63479C22.398 9.79079 22.354 10.0568 22.087 10.1238C21.8688 10.1805 21.6459 10.2173 21.421 10.2338C21.044 10.2788 21.066 10.5898 21.066 10.7678V13.0318C21.066 13.3418 20.822 14.3858 19.623 14.3858H16.87C15.827 14.3858 15.006 13.5198 15.006 12.5878V7.21579C14.984 6.28379 15.827 5.66179 16.582 5.68379C16.959 5.68379 17.226 5.79479 17.425 5.90579C17.869 6.10579 18.358 6.34979 19.002 6.66079C19.002 6.66079 20.022 5.92779 20.089 5.88379C20.444 5.63979 20.777 5.81679 20.889 6.03879C21.266 6.77179 21.976 8.25879 22.354 9.63479ZM23.996 5.61679C24.0086 4.74895 23.677 3.91144 23.0738 3.28741C22.4706 2.66339 21.6448 2.30362 20.777 2.28679C19.068 2.24279 18.114 2.86479 17.758 3.04179C17.736 3.06479 17.692 3.04179 17.648 2.99779C17.337 2.68779 16.648 2.22079 15.894 1.99879C15.783 1.97679 15.761 1.79879 15.894 1.79879C17.1067 1.66872 18.3315 1.70607 19.534 1.90979C19.668 1.93279 19.779 1.84379 19.712 1.73279C19.668 1.64379 19.645 1.59979 19.579 1.44379C19.423 1.13379 19.046 0.799789 18.558 0.666789C17.292 0.311789 15.117 0.000789504 13.164 0.000789504C10.988 -0.0212105 8.68 0.422789 8.102 0.555789C7.969 0.578789 7.769 0.64579 7.725 0.64579C7.614 0.64579 7.57 0.800789 7.636 0.866789L7.858 1.08879C7.925 1.17779 7.969 1.31079 7.836 1.44379L3.796 5.06279H6.57C6.747 5.06279 6.925 5.21779 6.925 5.41779C6.925 5.59479 6.769 5.77279 6.592 5.77279H2.997L1.909 6.77179H6.615C6.793 6.77179 6.948 6.97179 6.948 7.12679C6.948 7.28179 6.815 7.48179 6.615 7.48179H1.11L0 8.50279H9.501C9.678 8.50279 9.834 8.70279 9.834 8.85779C9.834 9.05779 9.701 9.23579 9.501 9.23579H0V10.2348H9.479C9.701 10.2348 9.812 10.4348 9.812 10.6118C9.812 10.7678 9.656 10.9448 9.456 10.9448H0V11.9448H12.386C12.586 11.9448 12.72 12.1218 12.72 12.3218C12.72 12.4988 12.564 12.6768 12.386 12.6768H3.33V13.6758H12.409C12.586 13.6758 12.719 13.8758 12.719 14.0528C12.719 14.2298 12.564 14.4078 12.409 14.4078L12.231 14.3858H3.33V15.3848H13.785C13.785 15.3848 14.162 14.5188 14.162 13.5418V6.81579C14.162 6.28379 14.384 5.39579 15.472 5.15179C15.494 5.15179 15.539 5.12879 15.561 5.12879C18.646 4.39679 21.821 5.06279 23.619 5.83879C23.952 5.99479 24.019 5.72879 23.996 5.61679ZM6.66 18.8258H8.77C10.656 18.8038 11.877 17.8058 11.877 17.8058H6.659L6.66 18.8258ZM6.66 17.0948H12.72C13.01 16.8058 13.364 16.2948 13.453 16.0958H6.659L6.66 17.0948Z" fill="#0B2343"/>
</svg>
