<svg width="24" height="6" viewBox="0 0 24 6" fill="none" xmlns="http://www.w3.org/2000/svg">
<path d="M3.158 0.897V5.028H3.808V4.62C4.038 4.917 4.385 5.103 4.769 5.103C5.537 5.103 6.101 4.521 6.101 3.53C6.101 2.563 5.543 1.962 4.769 1.962C4.397 1.962 4.05 2.13 3.809 2.452V0.897H3.158ZM13.443 1.219V2.037H12.948V2.6H13.443V4.329C13.443 4.83 13.703 5.103 14.212 5.103C14.509 5.103 14.702 5.016 14.819 4.911L14.664 4.415C14.6262 4.45147 14.5815 4.48014 14.5326 4.49935C14.4837 4.51857 14.4315 4.52796 14.379 4.527C14.193 4.527 14.094 4.372 14.094 4.167V2.6H14.701V2.037H14.094V1.219H13.443ZM7.955 1.962C7.001 1.962 6.419 2.668 6.419 3.529C6.419 4.384 7.001 5.103 7.955 5.103C8.909 5.103 9.492 4.384 9.492 3.529C9.492 2.669 8.909 1.962 7.955 1.962ZM22.532 1.962C21.646 1.962 21.014 2.662 21.014 3.529C21.014 4.477 21.677 5.103 22.581 5.103C23.051 5.103 23.491 4.948 23.795 4.663L23.498 4.236C23.281 4.452 22.941 4.57 22.643 4.57C22.079 4.57 21.745 4.192 21.695 3.746H24V3.586C24 2.644 23.43 1.962 22.532 1.962ZM17.956 1.962C17.497 1.962 17.107 2.26 16.977 2.439V2.037H16.327V5.028H16.977V2.935C17.114 2.743 17.38 2.538 17.671 2.538C18.025 2.538 18.161 2.755 18.161 3.078V5.028H18.811V2.935C18.941 2.736 19.214 2.538 19.505 2.538C19.858 2.538 20 2.755 20 3.078V5.028H20.65V2.867C20.65 2.26 20.335 1.962 19.79 1.962C19.337 1.962 18.94 2.242 18.774 2.507C18.674 2.185 18.402 1.962 17.956 1.962ZM1.406 1.962C0.929 1.962 0.496 2.112 0.149 2.446L0.421 2.898C0.534032 2.77612 0.671153 2.67905 0.82367 2.61295C0.976188 2.54684 1.14078 2.51315 1.307 2.514C1.717 2.514 2.007 2.724 2.007 3.071V3.517C1.784 3.263 1.444 3.133 1.035 3.133C0.545 3.133 0 3.418 0 4.112C0 4.768 0.551 5.102 1.035 5.102C1.431 5.102 1.785 4.96 2.007 4.7V5.028H2.657V3.04C2.657 2.241 2.074 1.962 1.406 1.962ZM9.856 2.037V4.155C9.856 4.762 10.178 5.103 10.822 5.103C11.292 5.103 11.664 4.868 11.875 4.632V5.028H12.525V2.037H11.875V4.137C11.7853 4.25488 11.6702 4.35112 11.5383 4.41861C11.4064 4.48611 11.2611 4.52315 11.113 4.527C10.741 4.527 10.506 4.378 10.506 3.914V2.037H9.856ZM22.526 2.495C23.115 2.495 23.356 2.929 23.376 3.282H21.69C21.715 2.922 21.975 2.495 22.527 2.495M4.585 2.538C5.099 2.538 5.428 2.953 5.428 3.53C5.428 4.112 5.099 4.527 4.585 4.527C4.43413 4.52488 4.28579 4.48794 4.15154 4.41908C4.01729 4.35022 3.90075 4.25129 3.811 4.13V2.941C3.90012 2.8186 4.01638 2.71852 4.15067 2.6486C4.28496 2.57868 4.43362 2.54082 4.585 2.538ZM7.957 2.538C8.515 2.538 8.818 3.003 8.818 3.529C8.818 4.062 8.515 4.527 7.958 4.527C7.406 4.527 7.096 4.062 7.096 3.53C7.096 3.003 7.406 2.538 7.957 2.538ZM1.297 3.579C1.576 3.579 1.854 3.684 2.009 3.889V4.347C1.854 4.551 1.576 4.657 1.297 4.657C0.931 4.657 0.653 4.447 0.653 4.118C0.653 3.796 0.931 3.579 1.297 3.579ZM15.566 4.229C15.4524 4.23051 15.3438 4.2759 15.2629 4.35568C15.182 4.43545 15.1351 4.54343 15.132 4.657C15.132 4.892 15.33 5.097 15.566 5.097C15.6812 5.09416 15.7909 5.0467 15.8718 4.96463C15.9528 4.88256 15.9987 4.77227 16 4.657C15.9969 4.54343 15.95 4.43545 15.8691 4.35568C15.7882 4.2759 15.6796 4.23051 15.566 4.229Z" fill="#333333"/>
</svg>
