<svg width="24" height="7" viewBox="0 0 24 7" fill="none" xmlns="http://www.w3.org/2000/svg">
<path d="M1.88 0L0 5.374H0.985L1.255 4.656H2.507L2.776 5.374H3.761L1.88 0ZM5.104 0.359L4.567 1.343H6.717V5.373H7.7V1.343H9.222L11.104 6.18L12.895 1.343H17.462L16.925 0.359H12.18L11.106 3.224L9.94 0.359H5.104ZM21.314 1.522V5.284H22.3V3.761L24 5.463V1.703H23.104V3.045L21.314 1.522ZM5.374 1.612C4.299 1.612 3.493 2.419 3.493 3.493C3.493 4.568 4.299 5.373 5.373 5.373C5.821 5.373 6.268 5.194 6.537 4.926L6 4.03C5.82 4.21 5.642 4.3 5.373 4.3C5.13562 4.29947 4.90813 4.20487 4.74037 4.03692C4.57261 3.86898 4.47826 3.64138 4.478 3.404C4.478 2.956 4.836 2.508 5.373 2.508C5.553 2.508 5.821 2.597 5.91 2.776L6.537 2.061C6.267 1.792 5.821 1.613 5.373 1.613L5.374 1.612ZM12.896 1.612V5.284H13.881V1.613L12.896 1.612ZM15.044 1.612C14.686 1.612 14.24 1.792 14.24 2.508C14.24 3.404 15.314 3.941 15.225 4.3C15.135 4.479 14.955 4.478 14.866 4.478H14.24V5.284H15.314C15.762 5.284 16.209 5.015 16.209 4.478C16.209 3.493 14.956 2.867 15.225 2.508C15.225 2.418 15.403 2.418 15.403 2.418H16.031V1.613L15.044 1.612ZM16.299 1.612V5.284H17.283V1.613L16.299 1.612ZM19.344 1.612C18.269 1.612 17.464 2.419 17.464 3.493C17.464 4.478 18.269 5.373 19.344 5.373C20.418 5.373 21.224 4.568 21.224 3.493C21.224 2.419 20.418 1.612 19.344 1.612ZM8.328 1.702V5.374H9.314V1.702H8.328ZM19.344 2.598C19.792 2.598 20.239 2.956 20.239 3.493C20.2387 3.73038 20.1444 3.95798 19.9766 4.12592C19.8089 4.29387 19.5814 4.38847 19.344 4.389C18.806 4.389 18.359 4.031 18.448 3.493C18.448 3.045 18.806 2.598 19.344 2.598ZM1.88 2.776L2.15 3.672H1.61L1.88 2.776Z" fill="black"/>
</svg>
