<svg width="175" height="41" viewBox="0 0 175 41" fill="none" xmlns="http://www.w3.org/2000/svg">
<g clip-path="url(#clip0_5_5)">
<path d="M170.394 8.16415L174.568 12.3668C174.714 12.4829 174.822 12.6396 174.878 12.8171C174.963 13.8515 174.18 13.9081 173.38 13.9659C173.034 13.9909 172.685 14.0162 172.402 14.121C170.998 14.5009 169.746 15.3033 168.815 16.4193C167.883 17.5353 167.318 18.9109 167.195 20.3593C167.105 20.5266 166.969 20.6643 166.802 20.7558C166.636 20.8474 166.447 20.8888 166.257 20.8753C166.037 20.8558 165.831 20.7595 165.675 20.6032L164.305 19.2238C164.315 19.3182 164.315 19.4117 164.315 19.4869V20.3968C164.315 20.4543 164.317 20.5097 164.31 20.565C164.301 20.627 164.28 20.6888 164.231 20.7532V20.8377C164.231 20.8808 164.236 20.9209 164.241 20.9616C164.251 21.0449 164.262 21.1307 164.231 21.2505C164.201 21.3622 164.198 21.4925 164.194 21.6088C164.193 21.6779 164.191 21.7421 164.184 21.7945C164.174 21.8672 164.174 21.9448 164.168 22.0223C164.162 22.0949 164.15 22.1674 164.118 22.2354C164.074 22.3306 164.059 22.4215 164.055 22.5139C164.052 22.5581 164.052 22.6026 164.052 22.6482L163.996 22.939L161.867 33.0891L161.698 33.8489L161.632 34.9559L160.694 39.7495L160.544 40.5H84.6248L84.2589 40.1341L84.1932 40.4531H76.0694L71.5478 35.9034L71.9793 33.8489H69.4277L67.8424 32.2448C65.8749 33.6775 63.4934 34.4285 61.06 34.3837C58.4442 34.4866 55.8941 33.5488 53.9681 31.7758L51.5009 29.2899L50.9662 31.7851C50.9006 32.1416 50.8161 32.4794 50.7223 32.8077L50.6379 33.1173L50.4972 33.5675C50.4856 33.6066 50.4699 33.6444 50.4503 33.6801C50.3106 34.0937 50.1446 34.4979 49.9531 34.8902C49.9581 34.9054 49.9581 34.9219 49.9531 34.9371C49.9285 34.9891 49.9003 35.0392 49.8686 35.0872C49.727 35.3675 49.5705 35.6399 49.3996 35.9034C49.3679 35.9513 49.3397 36.0015 49.3152 36.0535L49.212 36.166C48.9827 36.4949 48.732 36.8082 48.4615 37.1041C48.3873 37.1783 48.3131 37.248 48.2377 37.3164C48.1607 37.3864 48.0825 37.4551 48.0018 37.5262L47.7955 37.7232C47.6654 37.8313 47.5323 37.9356 47.3964 38.0361C47.2843 38.119 47.1703 38.1992 47.0544 38.2767C45.1211 39.4222 42.891 39.9674 40.6473 39.8433C37.5516 39.8433 35.075 38.9427 33.5084 37.3668L29.0994 32.9296C27.3383 33.9262 25.3442 34.4377 23.3208 34.4118C20.7129 34.4925 18.1782 33.542 16.2664 31.7664L13.7993 29.2805L13.0019 33.1173L12.8424 33.8771H4.54036L0 29.2992L0.234521 28.1923L5.22515 4.22418L5.37521 3.47372H13.7054L13.9212 3.68013V3.47372H70.0469L70.2533 3.68013V3.47372H78.3771L82.9174 8.05158L82.6923 9.14913L82.4484 10.3499H84.7842L85.1501 10.7158C86.1779 10.1134 87.3453 9.79005 88.5366 9.77769C89.4126 9.76039 90.2825 9.92678 91.0903 10.2661C91.8982 10.6054 92.626 11.11 93.227 11.7476L93.105 11.6069L95.3095 13.8302C96.651 11.3068 99.6622 9.77769 103.752 9.77769C106.923 9.77769 109.259 10.5844 110.675 12.0478L112.27 13.652L112.805 11.0722L112.964 10.3217H121.097L123.424 12.6576L123.752 11.0816L123.912 10.3311H139.916L140.347 10.7627C141.431 10.1231 142.672 9.79818 143.931 9.82458C144.688 9.79503 145.442 9.93365 146.14 10.2305C146.837 10.5273 147.46 10.975 147.964 11.5413C147.938 11.5118 147.913 11.4823 147.888 11.4533C147.843 11.3995 147.798 11.347 147.75 11.2984L148.565 12.1135C149.275 11.3782 150.129 10.7959 151.072 10.4024C152.016 10.0088 153.03 9.8121 154.052 9.82458C154.595 9.7912 155.137 9.8374 155.663 9.96033L154.775 9.06473C154.654 8.93528 154.572 8.77421 154.539 8.60021C154.506 8.42621 154.523 8.24631 154.587 8.08147C154.652 7.91657 154.762 7.77343 154.905 7.66854C155.048 7.56365 155.217 7.50129 155.394 7.48875H156.107C156.299 7.47043 156.49 7.44226 156.679 7.4043C157.676 7.19474 158.614 6.76624 159.425 6.1497C160.237 5.53323 160.901 4.74418 161.37 3.83959C161.411 3.76962 161.448 3.69765 161.482 3.62384V3.57695C161.805 2.88215 162.001 2.13581 162.064 1.37242C162.08 1.1352 162.187 0.913106 162.361 0.751186C162.535 0.589208 162.764 0.49943 163.002 0.500003H163.077C163.219 0.513515 163.357 0.559435 163.479 0.634211C163.601 0.709045 163.704 0.810732 163.781 0.931543C164.456 1.58821 168.208 5.40617 168.208 5.40617C168.521 5.74238 168.498 6.17885 168.474 6.62046C168.459 6.89352 168.444 7.16858 168.508 7.42308C168.679 7.45371 168.852 7.4769 169.024 7.49259C169.19 7.50753 169.356 7.51566 169.522 7.51687C169.716 7.52093 169.905 7.5854 170.061 7.7014C170.217 7.81735 170.334 7.9791 170.394 8.16415Z" fill="black"/>
<path d="M42.9361 11.2505H48.8648L45.544 27.0009C44.9343 29.984 43.771 31.6914 42.0074 32.9015C40.2236 33.9366 38.1753 34.4258 36.1163 34.3086C32.1951 34.3086 28.4333 32.667 28.0581 28.6801H34.0243C34.2119 29.6182 35.075 30.1529 36.3883 30.1529C38.1613 30.1529 38.9774 29.0835 39.3433 27.4043L39.6997 25.6688H39.5684C39.0449 26.2443 38.4099 26.7073 37.702 27.0298C36.994 27.3523 36.228 27.5276 35.4502 27.545C31.9981 27.545 29.2588 24.7964 29.3151 20.772C29.3902 16.0816 32.4483 10.7533 37.5797 10.7533C38.5521 10.6878 39.5229 10.9021 40.3774 11.3709C41.2319 11.8396 41.9342 12.5433 42.4014 13.3987H42.5046L42.9361 11.2505ZM37.8423 23.1454C40.1219 23.1454 41.3883 20.5188 41.4258 18.258C41.4258 16.7477 40.8348 15.1998 39.09 15.1998C36.7072 15.1998 35.4971 17.8546 35.4596 20.1341C35.4596 21.6726 36.0506 23.1454 37.7954 23.1454M104.4 23.652C104.4 24.6557 103.536 25.0591 102.401 25.0591C100.525 25.0591 99.8967 24.121 99.8873 22.8077H93.9868C93.8836 27.7045 98.2551 28.9146 102.139 28.9146C107.101 28.9146 110.319 26.7664 110.385 22.4794C110.385 19.0553 107.467 18.0141 104.597 17.348C102.392 16.8415 101.426 16.4756 101.435 15.6407C101.445 14.8058 102.43 14.4681 103.396 14.4681C104.606 14.4681 105.431 14.8996 105.516 16.0066H111.248C111.182 11.9165 107.495 10.7158 103.743 10.7158C99.1838 10.7158 95.6284 12.7889 95.5721 16.7101C95.5721 19.7964 97.6547 20.9315 100.797 21.7383C102.814 22.273 104.418 22.4418 104.4 23.652ZM148.236 13.7927H148.133C147.878 12.8689 147.314 12.0602 146.536 11.5005C145.758 10.9409 144.812 10.664 143.855 10.7158C141.304 10.7158 139.747 11.9822 138.274 13.8959H138.171L138.715 11.2505H132.748L129.174 28.3424H135.413L137.289 19.121C137.72 17.1135 138.743 15.7064 140.291 15.7064C141.839 15.7064 142.045 16.9446 141.726 18.455L139.662 28.3424H145.9L147.777 19.121C148.208 16.9822 149.231 15.7064 150.778 15.7064C152.326 15.7064 152.533 16.879 152.214 18.455L150.15 28.3424H156.388L158.621 18.1829C159.559 13.8959 158.124 10.6782 154.006 10.6782C152.86 10.6735 151.732 10.9561 150.724 11.5002C149.716 12.0443 148.861 12.8325 148.236 13.7927ZM1.14441 28.3424H7.58906L12.5703 4.3743H6.13503L1.14441 28.3424ZM20.544 10.7439C24.8967 10.7439 29.0525 13.1266 28.9868 18.5206C28.9305 24.4212 24.9155 28.8396 18.7804 28.8396C14.559 28.8396 10.3377 26.4944 10.4127 21.1285C10.5159 15.3687 14.4746 10.7439 20.544 10.7439ZM18.9587 24.6557C21.7073 24.6557 22.711 20.6688 22.711 18.3236C22.711 16.6445 22.1951 15.0028 20.3845 15.0028C17.6641 15.0028 16.7354 19.2242 16.7354 21.4006C16.7354 23.1454 17.2232 24.6557 18.9962 24.6557M14.7185 4.3743L13.7804 9.16792H67.8986L68.8367 4.3743H14.7185ZM58.2457 10.7439C62.5984 10.7439 66.7541 13.1266 66.6885 18.5206C66.6322 24.4212 62.6078 28.8396 56.4727 28.8396C52.2513 28.8396 48.0299 26.4944 48.1144 21.1285C48.2457 15.3687 52.2044 10.7439 58.2457 10.7439ZM56.6885 24.6557C59.4371 24.6557 60.4408 20.6688 60.4408 18.3236C60.4408 16.6445 59.9155 15.0028 58.105 15.0028C55.3939 15.0028 54.4558 19.2242 54.4558 21.4006C54.4558 23.1454 54.9436 24.6557 56.726 24.6557M71.0506 4.3743L70.1125 9.16792H76.3414L77.2795 4.3743H71.0506ZM66.06 28.3424H72.2982L75.8723 11.2505H69.5965L66.06 28.3424ZM85.9661 28.9146C84.9733 28.9851 83.9804 28.7776 83.0988 28.3153C82.2173 27.853 81.482 27.1542 80.9755 26.2974H80.8723L78.9962 34.9465H72.6828L77.7485 11.2505H83.6772L83.2082 13.53C83.8273 12.688 84.6293 11.9973 85.5538 11.5098C86.4783 11.0224 87.5013 10.7509 88.5459 10.7158C92.2982 10.7158 94.5027 13.9334 94.4371 18.1173C94.3526 23.3799 91.6228 28.9146 85.9286 28.9146H85.9661ZM85.7222 15.5563C83.3114 15.5563 81.8292 18.6426 81.7917 21.016C81.7917 22.667 82.3733 24.5056 84.3526 24.5056C86.9324 24.5056 87.9924 21.091 88.0205 18.8114C88.0205 17.2636 87.5703 15.5563 85.7222 15.5563ZM121.792 25.6501H121.895L121.351 28.3612H127.279L130.854 11.2692H124.625L122.636 20.8189C122.233 22.7983 121.013 23.8396 119.475 23.8396C117.936 23.8396 117.598 22.3949 117.908 20.8846L119.925 11.2692H113.696L111.491 21.8227C110.553 26.4193 112.692 28.8959 116.276 28.8959C117.401 28.8849 118.504 28.5774 119.472 28.0042C120.44 27.431 121.241 26.6125 121.792 25.6313V25.6501ZM155.253 35.031L156.191 30.2373H82.2138L81.2757 35.031H155.253Z" fill="white"/>
<path d="M161.96 15.9409C161.899 15.9362 161.839 15.9193 161.784 15.8912C161.728 15.8632 161.679 15.8245 161.639 15.7774C161.599 15.7303 161.569 15.6758 161.55 15.6169C161.531 15.558 161.524 15.496 161.529 15.4343C161.607 14.5989 161.508 13.7563 161.238 12.9619C160.968 12.1675 160.533 11.439 159.961 10.8244C159.39 10.2098 158.695 9.72274 157.923 9.39524C157.15 9.06775 156.317 8.90717 155.478 8.92403C155.354 8.92403 155.235 8.87462 155.147 8.78665C155.059 8.69869 155.009 8.57938 155.009 8.45498C155.009 8.33058 155.059 8.21129 155.147 8.12333C155.235 8.03536 155.354 7.98594 155.478 7.98594C155.703 8.00048 155.929 8.00048 156.154 7.98594C157.82 7.80843 159.372 7.05564 160.543 5.85711C161.715 4.65858 162.431 3.08928 162.57 1.41934C162.58 1.30155 162.633 1.19169 162.72 1.11168C162.807 1.03168 162.921 0.987447 163.039 0.987826C163.101 0.992561 163.161 1.00945 163.216 1.03751C163.271 1.06557 163.32 1.10425 163.36 1.15133C163.401 1.19842 163.431 1.25296 163.45 1.31184C163.469 1.37071 163.476 1.43275 163.471 1.49439C163.393 2.32905 163.492 3.1708 163.761 3.96458C164.031 4.75835 164.465 5.48628 165.035 6.10078C165.606 6.71527 166.299 7.20249 167.07 7.53058C167.842 7.85867 168.674 8.02023 169.512 8.0047C169.636 8.0047 169.756 8.05413 169.844 8.14209C169.932 8.23005 169.981 8.34935 169.981 8.47375C169.981 8.59815 169.932 8.71746 169.844 8.80542C169.756 8.89338 169.636 8.94279 169.512 8.94279C167.73 8.97223 166.021 9.65877 164.714 10.8707C163.407 12.0826 162.593 13.7345 162.43 15.5094C162.42 15.6272 162.367 15.7371 162.28 15.8171C162.193 15.8971 162.079 15.9413 161.96 15.9409Z" fill="white"/>
</g>
<defs>
<clipPath id="clip0_5_5">
<rect width="175" height="40" fill="white" transform="translate(0 0.5)"/>
</clipPath>
</defs>
</svg>
